<svg width="15" height="15" viewBox="0 0 15 15" fill="none" xmlns="http://www.w3.org/2000/svg">
<g clip-path="url(#clip0)">
<path d="M14.8498 14.0928L9.51309 8.75614C11.3876 6.46361 11.0486 3.08562 8.75614 1.21116C6.46365 -0.663309 3.08563 -0.324387 1.21116 1.96811C-0.663303 4.2606 -0.324382 7.63862 1.96811 9.51309C3.94277 11.1276 6.78149 11.1276 8.75614 9.51309L14.0929 14.8498C14.3055 15.0552 14.6444 15.0493 14.8498 14.8367C15.0502 14.6292 15.0502 14.3003 14.8498 14.0928ZM5.37069 9.65333C3.00655 9.65067 1.09068 7.73483 1.08805 5.37069C1.08805 3.00545 3.00546 1.08804 5.37069 1.08804C7.73593 1.08804 9.65334 3.00545 9.65334 5.37069C9.65334 7.73592 7.73593 9.65333 5.37069 9.65333Z" fill="black"/>
</g>
<defs>
<clipPath id="clip0">
<rect width="15" height="15" fill="white"/>
</clipPath>
</defs>
</svg>
